# xmcd
#
# Track frame offsets:
#	150
#	24061
#	42465
#	61006
#	79784
#	100929
#	119656
#	141083
#	162806
#	182954
#	198866
#	214355
#	232796
#	253510
#
# Disc length: 3590 seconds
#
# Revision: 1
# Processed by: cddbd v1.5.2PL0 Copyright (c) Steve Scherf et al.
# Submitted via: audiograbber 1.83.01
#
DISCID=b70e040e
DTITLE=Silly - Alles Rot
DYEAR=2010
DGENRE=
TTITLE0=Alles rot
TTITLE1=Ich sag nicht ja
TTITLE2=Erinnert
TTITLE3=Nackter als du
TTITLE4=Findelkinder
TTITLE5=Flieger
TTITLE6=Mein Kapitän
TTITLE7=Noch
TTITLE8=Leg mich fest
TTITLE9=Warum ich
TTITLE10=Ich verlasse mich
TTITLE11=Die Furcht der Fische
TTITLE12=Höhle
TTITLE13=Sonnenblumen
EXTD=
EXTT0=
EXTT1=
EXTT2=
EXTT3=
EXTT4=
EXTT5=
EXTT6=
EXTT7=
EXTT8=
EXTT9=
EXTT10=
EXTT11=
EXTT12=
EXTT13=
PLAYORDER=
